<svg version="1.1" id="Layer_1" xmlns="http://www.w3.org/2000/svg" xmlns:xlink="http://www.w3.org/1999/xlink" x="0px" y="0px"
	 width="100%" viewBox="0 0 1024 960" enable-background="new 0 0 1024 960" xml:space="preserve">
<path fill="#000000" opacity="1.000000" stroke="none" 
	d="
M620.209473,768.969116 
	C619.967041,779.286377 618.809814,789.039978 617.912659,798.816895 
	C617.557434,802.688110 614.763306,807.446045 621.058472,809.514832 
	C621.602478,809.693604 621.934631,810.901001 622.133728,811.689087 
	C626.523315,829.066162 638.516907,839.643127 653.873047,847.197388 
	C659.568604,849.999268 665.486694,852.308105 671.687378,853.635315 
	C675.566040,854.465576 676.518127,856.176819 675.348694,859.903198 
	C674.208191,863.537659 673.400024,867.319153 672.887878,871.096130 
	C672.368225,874.927734 670.722778,876.314270 666.715759,876.329529 
	C630.723755,876.466431 594.732727,876.825317 558.741028,877.080444 
	C552.621155,877.123840 552.322144,876.508301 553.361755,870.312256 
	C554.515625,863.435608 557.714844,857.422241 560.769958,851.312988 
	C567.613403,837.627991 571.330872,823.333984 568.943665,807.907227 
	C568.492188,804.989746 569.024902,803.109375 574.276306,804.871460 
	C569.508789,799.577209 566.132507,795.346741 562.258057,791.636475 
	C556.193420,785.828735 555.739990,778.819214 557.281128,771.342712 
	C558.212036,766.826782 559.640381,762.413452 560.907104,757.725098 
	C556.897949,756.526550 553.070496,757.101440 549.331604,757.313293 
	C545.669678,757.520752 543.955994,756.183167 543.083618,752.594910 
	C540.096619,740.309753 536.698303,728.124207 533.751587,715.830078 
	C532.761963,711.701294 530.890381,710.111816 526.555481,710.276550 
	C514.665100,710.728577 502.997162,708.627686 491.478424,705.984009 
	C487.711823,705.119568 485.707092,705.905579 483.672607,709.070740 
	C474.754242,722.945801 465.522369,736.619629 456.635162,750.514221 
	C454.648346,753.620483 452.449951,754.717041 448.873047,754.401917 
	C442.971039,753.882019 437.032837,753.772949 430.679626,753.470276 
	C432.687103,761.600830 435.001953,769.050964 435.345764,776.908875 
	C435.629242,783.387939 434.468018,789.538879 429.484833,793.773132 
	C423.124756,799.177307 422.562378,806.168945 422.337219,813.533691 
	C421.936768,826.632324 425.030273,838.937622 430.812439,850.607178 
	C434.063599,857.168579 437.667053,863.542419 438.706940,870.992554 
	C439.473175,876.481750 439.226288,877.107117 433.551025,877.059570 
	C410.891693,876.869690 388.233490,876.547302 365.574188,876.355408 
	C352.408844,876.243896 339.237885,876.084839 326.078552,876.369568 
	C321.443176,876.469849 319.507385,874.979187 319.022247,870.415405 
	C318.620819,866.638733 317.616547,862.878174 316.458710,859.244446 
	C315.449585,856.077515 316.414246,854.585327 319.470917,853.846863 
	C334.528992,850.209045 347.693542,843.169189 358.926514,832.381409 
	C361.314484,830.087952 362.831696,827.443665 364.337158,824.731567 
	C369.936981,814.643433 373.643585,804.092346 373.823242,792.261292 
	C374.012604,779.789429 376.103668,767.435181 378.197968,755.139771 
	C378.712463,752.119202 378.666840,750.223450 374.938385,750.230469 
	C372.334625,750.235413 372.291718,748.515686 372.473602,746.409058 
	C373.439941,735.217773 377.515320,725.098816 382.940125,715.435608 
	C391.486023,700.212646 402.569885,686.906799 414.501617,674.295959 
	C417.298248,671.340149 417.895874,668.849976 416.327240,665.020325 
	C411.401733,652.995117 407.901733,640.502808 404.626526,627.692383 
	C403.203156,636.539001 401.794708,645.388123 400.350739,654.231384 
	C399.497650,659.455872 398.102356,660.489685 393.031677,659.615356 
	C380.414246,657.439697 367.795563,655.269897 355.191864,653.016602 
	C348.747650,651.864563 347.765350,650.310364 348.942291,643.782654 
	C350.317841,636.153320 348.551575,634.297302 340.756866,634.971680 
	C339.392456,635.089722 338.613831,635.603943 338.098541,636.788147 
	C331.312500,652.383545 311.749359,654.110107 296.695587,648.075134 
	C288.684692,644.863708 283.067291,639.154907 280.070526,631.089478 
	C278.924774,628.005859 277.093170,626.635376 273.895935,626.271423 
	C266.957581,625.481873 260.033081,624.529724 253.135834,623.436218 
	C249.224228,622.816101 247.363785,624.190735 246.557144,628.105408 
	C243.304825,643.889038 244.375061,641.612915 229.447968,639.530640 
	C220.715424,638.312317 211.952759,637.309265 203.222061,636.078857 
	C197.254196,635.237793 196.075165,633.812927 196.864990,628.319519 
	C199.371063,610.889099 202.082443,593.487610 204.471786,576.041626 
	C205.067108,571.694946 207.067688,570.391418 211.158752,570.872986 
	C225.364014,572.545105 239.585495,574.078918 253.797729,575.692505 
	C258.508179,576.227234 259.537262,577.819458 258.240997,582.343628 
	C256.835785,587.247986 254.632721,591.935730 253.923462,597.336731 
	C261.751678,599.398621 269.644806,599.208862 277.312317,600.541443 
	C279.004822,600.835571 280.232391,600.066406 280.539734,598.223572 
	C280.796356,596.684875 280.146851,595.921936 278.713959,595.180786 
	C272.828949,592.136841 269.877930,585.133728 271.632874,578.900940 
	C273.197327,573.344543 278.452942,570.098450 285.297150,570.461304 
	C291.535828,570.791931 291.524384,570.748047 291.675049,564.221191 
	C292.055969,547.719849 294.271088,531.472412 297.332733,515.234802 
	C301.396179,493.684174 313.288849,477.534210 329.759644,464.062256 
	C334.483490,460.198486 339.147430,456.261505 343.644318,452.043854 
	C337.219055,453.367371 331.210938,455.759308 324.759888,456.646576 
	C310.805939,458.565765 299.240662,452.325439 295.018951,438.849915 
	C286.513885,411.701965 290.988129,386.768097 310.110840,365.259949 
	C326.777222,346.514465 348.647949,335.930664 371.800903,327.749268 
	C399.406372,317.994476 428.023376,312.895203 457.037140,309.563934 
	C475.579834,307.434937 494.159576,306.232727 512.802124,305.762207 
	C513.634949,305.741180 514.472412,305.697784 515.301147,305.756897 
	C517.709778,305.928802 521.032654,305.342926 521.009338,308.896576 
	C520.986877,312.324310 517.613220,311.997253 515.245789,312.195648 
	C484.517273,314.770325 454.029510,319.030365 424.074707,326.391388 
	C395.508514,333.411133 367.659454,342.541443 342.851471,358.955231 
	C327.359619,369.205170 314.604431,381.805145 310.003235,400.727509 
	C307.553162,410.803345 307.665283,420.880157 310.269806,430.865662 
	C312.399902,439.032379 316.441376,441.343628 324.655487,439.985382 
	C336.673584,437.998077 347.578339,432.868866 358.284882,427.555603 
	C387.614655,413.000183 418.272186,402.960052 450.709015,398.225281 
	C476.741699,394.425323 502.827698,390.828552 529.133911,390.669434 
	C535.959412,390.628113 543.662537,390.741730 550.096130,396.435944 
	C557.255676,402.772675 563.827820,401.806030 571.301514,395.796661 
	C571.932861,395.289001 572.660583,394.696808 572.932556,393.986511 
	C573.626099,392.174988 572.512512,388.911957 575.882385,389.261719 
	C580.079529,389.697296 584.930542,388.985931 588.060364,392.507843 
	C590.086487,394.787811 591.242371,397.904907 591.546692,401.175903 
	C591.710327,402.934204 591.893005,404.589294 590.074646,405.523834 
	C588.548462,406.308258 586.901428,406.624756 585.328064,405.555206 
	C584.503357,404.994568 583.781616,404.271362 582.927246,403.767609 
	C581.185364,402.740479 579.417847,402.780365 577.799988,404.054382 
	C576.974548,404.704437 576.451782,405.598541 576.902100,406.680878 
	C577.648804,408.475555 579.241150,408.910614 580.980835,409.011353 
	C582.441589,409.095947 583.904419,409.145111 585.443237,409.621033 
	C581.156372,412.053802 576.823059,414.167572 571.799133,414.309479 
	C567.808044,414.422211 564.575012,415.382538 564.065186,420.199158 
	C563.779602,422.897400 561.635315,424.086731 559.290588,424.719635 
	C554.882080,425.909637 551.090027,428.282196 547.173767,430.510620 
	C533.960449,438.029114 520.172363,440.590851 505.470856,435.018433 
	C500.679810,433.202484 498.509644,435.175873 499.492676,440.350189 
	C500.143982,443.778320 501.358368,447.096680 502.079132,450.515137 
	C503.059814,455.166443 499.363251,459.639069 494.697662,459.717743 
	C491.935608,459.764374 491.547546,457.542175 491.043671,455.697174 
	C488.711243,447.156586 487.988373,438.340393 486.839172,429.602844 
	C486.570557,427.560425 486.590790,425.656250 484.243591,424.723053 
	C483.115417,424.274536 482.313416,423.101807 482.628418,421.876648 
	C484.407501,414.956940 478.344116,411.636841 475.701447,406.789673 
	C474.513824,404.611389 471.883331,404.997192 469.744598,405.327759 
	C461.182953,406.651154 452.728241,408.523529 444.392181,410.861725 
	C440.768951,411.878082 440.336609,415.013641 443.623444,417.528351 
	C448.293060,421.101044 452.091461,426.198242 458.665039,426.738739 
	C459.193542,426.782166 459.666016,427.507294 459.940216,427.731903 
	C460.708344,430.075226 457.845428,429.900085 457.828949,431.791046 
	C468.427948,447.413696 467.019745,463.691437 459.188629,479.997314 
	C451.114410,496.809296 438.838898,510.374298 425.058258,522.640686 
	C421.781219,525.557678 419.972382,528.806213 419.049866,533.122192 
	C410.227142,574.399292 412.472168,614.812866 427.666351,654.389893 
	C429.241089,658.491699 431.353241,659.906738 435.674286,659.971008 
	C467.989594,660.451355 500.303009,661.096130 532.613770,661.834167 
	C560.426453,662.469421 588.237732,663.204285 616.041504,664.138672 
	C620.105408,664.275269 621.807861,663.292114 622.868286,659.199829 
	C629.067688,635.275391 632.538879,610.993896 633.907227,586.328918 
	C634.914368,568.174438 635.012390,550.053833 634.187134,531.902344 
	C634.018311,528.188660 632.464844,525.814270 629.533447,523.672974 
	C615.621582,513.510803 602.476013,502.548248 593.053772,487.781952 
	C579.490723,466.526398 580.816345,443.160828 597.158875,424.009705 
	C602.595825,417.638336 608.243835,411.393005 614.943054,406.202606 
	C618.383118,403.537354 616.672241,400.963806 614.040833,398.828125 
	C609.866760,395.440369 606.161255,391.471130 600.546875,389.161621 
	C605.348511,385.030914 609.546570,383.080109 615.210388,384.067657 
	C623.360901,385.488739 631.450928,383.729889 639.474121,382.266602 
	C640.877563,382.010651 642.440857,381.654175 643.172974,380.182922 
	C643.214172,378.325958 641.832031,377.458710 640.867798,376.379120 
	C633.146179,367.733521 629.125793,357.526581 628.038208,346.083557 
	C627.668335,342.191895 628.487549,338.690796 632.142639,336.595856 
	C635.569702,334.631561 638.437439,336.220398 641.343567,338.206421 
	C646.545837,341.761627 652.644348,341.476349 657.964722,337.711853 
	C658.233093,336.212799 657.340515,335.171875 656.465942,334.184753 
	C631.045105,305.493774 612.910828,272.087067 594.679138,238.743759 
	C592.680847,235.089188 590.685791,231.431503 588.773071,227.731964 
	C587.594849,225.453140 586.430542,222.857529 589.247742,221.081741 
	C592.186279,219.229477 594.224854,221.052170 595.815491,223.540283 
	C598.039062,227.018326 600.296753,230.474533 603.323853,235.151230 
	C616.595459,197.283905 630.014893,160.764175 653.854492,129.104385 
	C628.694092,132.199188 553.819885,169.247284 546.148010,182.470657 
	C549.102356,184.278732 552.023376,182.900696 554.696045,182.153183 
	C574.454712,176.626953 593.830444,170.033203 612.233643,160.825363 
	C615.010254,159.436157 617.627991,157.513092 621.144226,158.531036 
	C622.747559,158.995178 623.854004,157.628723 624.801758,156.396317 
	C626.124756,154.676086 627.497559,152.980484 630.092529,153.669785 
	C631.248535,155.781097 629.542725,156.805054 628.555115,157.988480 
	C616.055908,172.965485 604.286072,188.477905 593.616943,204.825653 
	C589.180664,211.623169 586.710388,219.200775 584.138306,226.769165 
	C583.551880,228.494751 583.364746,229.945984 585.386169,230.967300 
	C586.784912,231.674026 587.915466,232.881058 587.040527,234.610535 
	C586.084717,236.500015 584.378845,236.187576 582.675049,235.743622 
	C572.602417,233.118988 565.263245,226.982788 559.939514,218.199341 
	C559.013672,216.671829 558.583130,214.773880 556.616699,213.615891 
	C553.204407,215.393356 549.721924,217.300964 546.159363,219.044800 
	C536.991272,223.532486 536.977112,223.503494 529.053772,215.763977 
	C526.975830,215.591614 525.847168,217.242645 524.482178,218.361450 
	C510.826416,229.554703 495.112671,235.841904 477.690094,238.078339 
	C476.867279,238.183975 476.027649,238.197372 475.196350,238.190811 
	C473.367401,238.176346 471.768768,237.635361 471.617981,235.537384 
	C471.480865,233.629593 472.957672,233.031113 474.535980,232.767014 
	C477.332062,232.299133 480.075165,231.683151 483.190277,229.966827 
	C474.494354,190.291794 466.266785,150.359222 476.331787,108.964401 
	C467.896271,113.662109 461.536926,120.059425 455.052979,126.209824 
	C437.937866,142.444473 422.495453,160.084915 411.013672,180.868103 
	C407.371338,187.461044 404.548950,194.390533 403.808563,202.000397 
	C403.712189,202.990936 403.385864,204.030258 403.574890,204.964233 
	C404.163055,207.869766 404.177521,211.411835 407.074829,212.908371 
	C410.035004,214.437347 412.396332,211.787720 414.521423,210.122452 
	C425.931671,201.181183 434.568756,189.712326 442.995575,178.115845 
	C448.379639,170.706573 453.329803,162.982941 458.536591,155.443100 
	C459.438751,154.136673 459.952942,152.385178 462.054932,151.821686 
	C462.054932,155.919876 462.415192,159.954666 461.993591,163.906021 
	C459.981873,182.760925 458.603943,201.707916 454.445282,220.275894 
	C453.624756,223.939362 454.858124,227.168945 456.408447,230.357330 
	C457.564301,232.734482 458.506531,235.358627 455.453308,236.816925 
	C452.463867,238.244736 450.932373,235.876755 449.641602,233.606461 
	C445.773865,226.803757 443.922150,219.463165 443.637085,211.666992 
	C443.492676,207.717026 444.099243,203.698898 442.833527,199.297684 
	C438.542267,202.347855 436.297668,206.678452 433.150513,210.150818 
	C428.435242,215.353302 423.726593,220.542709 417.675110,224.213623 
	C406.597931,230.933167 396.830383,227.615616 391.799103,215.620361 
	C387.601776,205.613449 389.034302,195.695908 392.384796,185.902267 
	C398.757019,167.275909 410.058868,151.622452 422.772034,136.942612 
	C435.351044,122.417702 449.110718,109.108002 465.019623,98.181305 
	C468.734344,95.629944 472.553619,93.223129 476.863007,91.798714 
	C481.604431,90.231514 486.492340,89.366188 490.431793,93.387085 
	C494.278717,97.313606 494.114960,102.209076 492.161560,106.933975 
	C484.944489,124.390785 483.327759,142.820251 483.534790,161.329147 
	C483.772919,182.621353 485.991638,203.812866 490.304718,224.724411 
	C490.465485,225.503845 490.788574,226.249786 491.007141,226.922455 
	C493.233063,227.715256 494.776184,226.488998 496.364288,225.722931 
	C507.464935,220.368164 517.082458,213.062973 525.161621,203.733658 
	C530.434753,197.644577 533.968811,198.293976 536.609375,206.042969 
	C538.039978,210.241272 540.085083,211.152710 544.009033,208.958038 
	C547.782349,206.847641 551.790771,205.197037 555.074768,202.248093 
	C559.643860,198.145126 562.844238,199.149445 564.118164,205.183121 
	C565.342468,210.981476 567.328247,216.370621 571.157349,220.976440 
	C572.320312,222.375381 573.338196,223.941589 576.285889,224.693863 
	C580.404968,211.268250 585.126831,197.996475 590.113953,184.746017 
	C587.005310,183.598099 585.129333,184.974060 583.183777,185.722672 
	C571.682190,190.148178 560.233032,194.716599 548.004944,196.854248 
	C542.561279,197.805862 537.611389,197.135330 534.094421,192.403976 
	C530.485291,187.548630 530.213440,182.283539 532.836670,176.856705 
	C535.668091,170.999222 540.210205,166.602798 545.206482,162.653503 
	C561.836182,149.508499 580.784851,140.423904 600.035828,132.017426 
	C623.556396,121.746521 647.516846,112.630196 672.727356,107.255608 
	C673.215942,107.151436 673.696594,107.002419 674.188904,106.924385 
	C680.327332,105.951416 685.176392,107.732399 686.834290,111.558746 
	C688.743896,115.965698 687.117371,120.002464 681.062256,123.895386 
	C664.657898,134.441895 654.369751,150.206131 644.660522,166.389481 
	C630.818054,189.462082 620.238403,214.103546 610.587952,239.159760 
	C609.625122,241.659607 608.796753,244.038437 610.566772,246.726501 
	C627.890259,273.035400 645.182251,299.362030 666.974609,322.332489 
	C670.537903,326.088470 674.463623,329.392487 678.824280,332.251434 
	C685.105225,336.369446 684.913940,342.507294 678.604187,346.725891 
	C670.140381,352.384613 661.547058,354.966248 645.096130,356.692871 
	C647.435669,365.093536 652.837158,370.833221 659.905518,375.228149 
	C663.358459,377.375031 668.131104,378.481445 667.205444,384.014557 
	C666.290771,389.481476 661.270508,389.159271 657.438232,390.156586 
	C650.500793,391.962067 643.357117,392.687439 636.231995,393.217834 
	C628.970398,393.758423 628.949341,393.565216 629.190308,401.022278 
	C629.216248,401.826630 629.377258,402.626678 629.566467,404.168884 
	C647.953308,391.749573 665.132568,395.703094 682.074524,407.929108 
	C684.711426,397.572021 687.546082,388.067749 691.658997,378.997406 
	C695.044922,371.530090 699.406738,364.643066 703.777466,357.746857 
	C707.246765,352.272888 710.062073,358.242401 713.108643,358.554962 
	C715.941528,358.845581 714.123718,361.887238 713.179016,363.389893 
	C707.321716,372.707123 701.616943,382.097351 697.279663,392.247925 
	C696.429077,394.238464 695.542908,396.214905 694.740662,398.224762 
	C688.521118,413.804932 689.487305,417.574921 702.964600,427.874481 
	C707.856201,431.612732 712.935364,435.164612 718.212158,438.329468 
	C740.464294,451.675598 754.022278,470.737183 759.242676,496.402283 
	C763.218506,515.948547 768.063538,535.328369 771.356628,555.020386 
	C772.085205,559.376831 773.736816,561.623108 778.503357,560.844971 
	C780.946228,560.446228 783.512085,560.861633 785.987366,560.589905 
	C792.687805,559.854553 798.582947,561.397583 801.676941,567.731995 
	C805.005249,574.546021 802.137817,580.677307 797.862122,586.175781 
	C797.044189,587.227600 795.889771,588.075745 795.762146,589.456299 
	C795.465088,592.670959 793.674988,596.751831 797.034424,598.705566 
	C800.630859,600.797119 804.777222,598.788086 808.412659,597.242310 
	C810.131348,596.511475 809.561768,594.730530 809.161438,593.246643 
	C808.164612,589.551636 807.275513,585.826050 806.204407,582.153198 
	C805.134521,578.484619 806.311707,576.327637 810.127502,575.702515 
	C810.291992,575.675537 810.459351,575.663147 810.621643,575.627136 
	C822.882812,572.904602 823.001648,572.918640 824.503906,560.346985 
	C825.549072,551.600403 827.094604,542.886719 826.764282,534.008728 
	C826.692993,532.092651 826.360474,529.428284 828.998047,529.136902 
	C832.021118,528.802856 831.895569,531.648560 832.354980,533.704712 
	C834.891235,545.058105 834.440552,556.544861 833.928833,568.036621 
	C833.885864,569.001465 833.923157,569.969849 833.923157,570.923950 
	C843.079468,571.616821 844.964172,569.980347 845.883240,561.398254 
	C846.767822,553.137268 847.718506,544.856262 851.573364,536.823853 
	C854.876526,539.040710 856.384766,537.740173 857.494873,534.342529 
	C860.451965,525.292236 863.485718,516.359192 860.505859,506.646301 
	C859.405823,503.060944 860.980225,499.677856 862.545776,496.574188 
	C864.688538,492.326294 866.072998,488.013947 866.082214,483.201080 
	C866.088257,480.029968 867.457947,477.249451 870.148621,474.994843 
	C868.010193,506.118958 860.104919,536.217407 854.691162,567.063416 
	C858.969910,567.995056 860.241882,570.905334 860.615356,575.258301 
	C862.092957,592.480408 863.996399,609.666138 865.780029,626.861450 
	C866.096313,629.910767 864.733704,631.656494 861.859619,632.240112 
	C848.980103,634.855713 836.097656,637.458069 823.200867,639.986816 
	C820.331604,640.549377 818.309265,639.384521 817.655884,636.371643 
	C816.985901,633.282471 816.388672,630.177368 815.698242,627.092957 
	C814.736816,622.797729 812.414978,621.994507 809.039978,624.799316 
	C807.889771,625.755249 806.901978,626.905334 805.761475,627.874268 
	C804.600464,628.860535 803.526978,628.863098 802.254944,627.736084 
	C798.358948,624.284424 794.774353,625.427490 791.745239,629.845764 
	C783.213135,642.290344 776.960938,656.392334 765.329163,666.609558 
	C764.453613,667.378662 763.645325,668.224609 762.766479,668.989807 
	C761.698975,669.919312 760.493347,670.563660 759.184204,669.525696 
	C757.695190,668.345154 758.026733,666.927124 758.918274,665.527527 
	C761.692261,661.173096 764.502686,656.841309 767.217224,652.450073 
	C767.982422,651.212158 769.014404,650.013000 768.787598,647.752136 
	C758.389771,649.487976 748.048584,649.820068 738.890503,644.339233 
	C736.824951,645.302002 736.596924,646.898743 736.005798,648.228271 
	C728.640320,664.795349 717.194641,677.964661 702.540833,688.466064 
	C701.729675,689.047424 700.898438,689.609314 700.033447,690.104980 
	C698.703430,690.867249 697.303711,691.607422 695.973511,690.144592 
	C694.677002,688.718872 695.310730,687.335815 696.312622,686.109863 
	C697.995972,684.050232 699.616211,681.908813 701.514404,680.059875 
	C712.970886,668.900879 719.675171,654.717224 726.702820,640.735474 
	C726.824890,640.492676 726.645935,640.098511 726.577454,639.521912 
	C721.877075,639.039246 717.456543,640.724243 712.960876,641.604675 
	C710.762695,642.035217 711.297180,644.193298 711.453308,645.805847 
	C712.561768,657.252014 712.577515,657.265930 701.643616,659.867310 
	C696.464600,661.099487 691.291748,662.375366 686.074280,663.423340 
	C680.432434,664.556641 675.223999,666.384338 670.965332,670.508850 
	C669.309387,672.112610 667.297363,673.421387 665.272827,674.551392 
	C663.249390,675.680847 661.047729,678.653442 658.731262,676.288879 
	C656.156494,673.660522 659.534180,672.022217 660.958679,670.204224 
	C661.475708,669.544312 662.209351,668.872498 661.830566,668.009644 
	C657.932373,659.128479 659.832520,649.271667 657.003723,639.838989 
	C654.521545,640.392334 653.642456,642.902466 651.817932,644.091797 
	C640.804016,651.271362 636.342407,662.205444 634.372070,674.505920 
	C633.637512,679.091980 631.248718,680.538208 626.796387,680.074829 
	C620.907837,679.461853 614.970459,678.784363 609.011719,679.818298 
	C608.676697,682.520020 610.271423,684.181335 611.279724,686.002869 
	C620.461121,702.588013 627.690796,719.853027 629.734070,738.911682 
	C630.051697,741.874695 630.025391,744.892334 629.929504,747.877441 
	C629.800354,751.900696 628.786377,755.127075 623.550293,754.471252 
	C621.272034,754.185852 620.352173,755.810974 620.336853,757.974976 
	C620.312134,761.476685 620.257385,764.978149 620.209473,768.969116 
M749.861267,508.549347 
	C748.451660,504.278839 746.805786,500.069916 745.674011,495.726990 
	C741.166382,478.429718 731.398071,465.117554 716.068726,455.893921 
	C714.071594,454.692261 712.112732,453.423889 710.169922,452.135437 
	C699.891296,445.318695 689.667664,438.529297 681.801331,428.679901 
	C676.598022,422.164886 670.400391,416.516968 662.827515,412.654999 
	C652.017090,407.141937 641.392578,408.442200 632.206482,416.349731 
	C627.990234,419.979156 625.035156,424.658356 621.555847,428.903046 
	C620.695618,429.952606 620.247681,431.765350 618.022827,431.045349 
	C617.200195,426.071655 620.025940,421.011749 618.085388,415.664764 
	C612.089111,418.594452 608.359680,423.545105 604.605103,428.306396 
	C596.265503,438.882141 591.043762,450.560944 594.243958,464.421265 
	C598.928162,484.709564 613.596375,497.229645 629.380676,508.789734 
	C630.300232,509.463165 631.497314,509.963623 632.648865,509.172516 
	C634.170044,508.127350 633.964355,506.536346 633.589172,505.088501 
	C632.461487,500.736908 631.227234,496.412659 630.011047,492.084351 
	C627.264893,482.311340 624.578613,472.520264 621.688599,462.789856 
	C621.097473,460.799652 619.016724,459.052948 620.900879,456.880005 
	C622.836487,454.647705 625.124695,455.633759 627.315613,456.556488 
	C636.986877,460.629730 646.647339,464.728821 656.333374,468.766449 
	C658.313416,469.591797 659.628601,470.811432 660.229858,472.947815 
	C662.510010,481.048706 667.957703,485.766571 675.989502,488.022430 
	C688.859802,491.637268 702.018921,491.191101 715.153015,491.221649 
	C719.521851,491.231842 723.951050,489.946777 728.281128,491.603882 
	C728.416077,494.234802 727.328247,496.277100 727.947266,498.763672 
	C732.326233,516.355103 736.414795,534.019104 740.553223,551.669983 
	C743.414307,563.872498 743.383850,563.879456 756.076843,562.828003 
	C756.408936,562.800476 756.742554,562.791138 757.074890,562.766907 
	C764.127686,562.251892 764.839050,561.250610 763.067322,554.426758 
	C759.133301,539.274719 754.863586,524.219360 749.861267,508.549347 
M420.452881,506.340698 
	C420.975281,511.355682 423.214203,509.183960 425.181519,507.404816 
	C435.266357,498.284454 443.909424,487.976837 450.276245,475.917236 
	C454.555237,467.812256 456.771545,459.185211 455.677704,449.910858 
	C454.931213,443.581665 452.832367,437.375000 447.920105,433.641632 
	C444.587860,431.109161 439.714844,434.374756 435.529968,435.018463 
	C434.061218,435.244385 432.500458,435.541199 431.228485,436.249115 
	C427.748840,438.185547 424.033783,437.411346 420.377594,437.896179 
	C420.641937,431.169952 419.469818,429.534180 412.907745,427.594391 
	C408.882782,426.404633 404.866302,426.084686 400.603851,426.915283 
	C391.911926,428.608917 384.977722,433.318237 378.443878,438.848938 
	C373.440613,443.083954 373.268707,445.687958 377.532501,450.990814 
	C375.414215,452.933197 372.856812,453.993683 370.204620,455.007538 
	C365.869110,456.664825 361.358826,458.009399 357.717346,461.118713 
	C351.513550,466.415924 345.380676,471.801300 339.056366,476.951172 
	C326.868317,486.875854 316.430481,497.924316 311.542267,513.477356 
	C306.127563,530.705444 303.088043,548.368042 300.464813,566.151489 
	C299.957031,569.593933 301.615479,571.148071 304.763977,571.497986 
	C309.065033,571.976013 313.370392,572.437439 317.684235,572.773499 
	C324.817444,573.329163 325.329559,572.683167 325.722961,565.688843 
	C326.638519,549.409363 327.756500,533.141296 328.707031,516.863647 
	C328.871399,514.049255 329.823364,512.263672 332.884979,512.723755 
	C344.340454,514.445068 353.964569,509.244568 363.781891,504.712982 
	C367.661835,502.921967 371.313171,500.530548 375.598999,499.856110 
	C378.974640,506.190399 379.769043,506.327759 386.275879,502.725555 
	C389.606506,500.881744 391.841583,498.022308 394.089508,495.135498 
	C395.548920,493.261261 396.077606,491.286346 394.285095,489.266022 
	C392.259583,486.983154 393.408295,485.411530 395.413818,483.940399 
	C398.475403,481.694580 400.846832,479.024261 400.740906,474.875641 
	C400.702179,473.359924 401.575562,472.326019 403.001099,471.945953 
	C411.684265,469.631042 420.370605,467.326660 429.077698,465.104187 
	C431.087219,464.591278 432.715576,465.442932 433.576294,467.357483 
	C434.423370,469.241730 433.450714,470.723511 431.938293,471.581726 
	C429.329010,473.062347 428.530273,475.449310 427.846497,478.101654 
	C425.478180,487.288269 423.002258,496.447144 420.452881,506.340698 
M672.755920,591.268799 
	C673.258850,590.216675 673.662231,589.100769 674.286499,588.126465 
	C675.404846,586.380981 675.171021,582.562134 678.498352,583.869629 
	C681.407410,585.012756 679.677673,587.865845 679.142944,590.038940 
	C679.063843,590.360413 678.927002,590.668945 678.803650,590.978210 
	C677.391235,594.522156 678.616394,596.055237 682.372437,595.676270 
	C683.200317,595.592651 684.037659,595.441528 684.860229,595.491516 
	C691.330933,595.884155 698.010986,590.646790 704.309021,596.186340 
	C704.421692,596.285461 704.848572,596.023438 705.130310,595.934692 
	C711.202271,594.021179 711.788330,594.699524 710.656616,601.265015 
	C709.882568,605.755188 708.141418,610.140625 708.553894,615.307861 
	C712.652527,614.674011 716.400574,614.168091 720.119019,613.497742 
	C723.581360,612.873474 726.945862,612.325806 727.608276,607.662415 
	C728.209290,603.431396 728.650940,599.889038 723.435059,598.185974 
	C721.701843,597.620056 720.204285,595.837097 718.972961,594.309204 
	C710.627319,583.953491 713.876709,572.699341 726.341431,568.504517 
	C727.919739,567.973450 729.474365,567.324707 731.092346,566.969177 
	C734.327087,566.258423 734.958496,564.587341 733.868958,561.520630 
	C728.685242,546.929749 723.616272,532.297729 718.585876,517.653076 
	C717.664307,514.970215 716.334351,513.986877 713.381653,514.735779 
	C709.523254,515.714478 705.559204,516.491638 701.596802,516.808594 
	C683.529785,518.253784 667.892456,513.687256 657.065002,497.975494 
	C653.527466,492.842255 651.277649,487.087860 649.944153,481.030884 
	C649.304932,478.127045 648.021423,476.599213 644.773315,476.891144 
	C644.594177,477.617676 644.327637,478.234467 644.313232,478.857086 
	C644.286316,480.019104 644.268433,481.210968 644.486206,482.344391 
	C646.321777,491.897797 645.146057,501.249695 642.498962,510.458832 
	C641.472107,514.031372 640.697754,517.209045 644.721497,519.523926 
	C646.108337,520.321777 646.168945,522.049683 646.242676,523.577209 
	C646.868530,536.544128 647.836182,549.505005 648.055481,562.478638 
	C648.407288,583.296143 647.287476,604.053284 644.538391,624.726929 
	C644.022339,628.607971 642.357117,632.630859 643.771118,636.875610 
	C645.867676,635.768250 646.143616,633.684631 647.377747,632.418762 
	C654.459717,625.154602 656.094910,616.855408 653.931702,606.954712 
	C652.488586,600.349609 653.951538,599.509521 660.987915,598.632935 
	C665.724182,598.042969 670.904175,598.079407 672.755920,591.268799 
M403.836212,548.682251 
	C405.772675,540.097534 407.805511,531.532593 409.581268,522.914795 
	C410.054962,520.616028 412.117798,518.911316 411.719360,516.378113 
	C410.705017,509.929108 409.700287,503.478577 408.548950,496.115845 
	C405.030945,504.007111 400.983887,510.423706 394.839294,515.291504 
	C381.067169,526.202026 364.925842,529.230347 347.952545,529.102844 
	C343.624847,529.070374 341.768219,530.246521 341.185089,534.774475 
	C339.785492,545.641602 337.882690,556.447266 336.028259,567.251160 
	C334.668091,575.175476 334.558807,575.156677 342.233337,577.779297 
	C350.742279,580.687134 353.032867,584.928284 351.452393,593.783997 
	C350.452423,599.386963 346.961517,603.170227 342.024078,607.368225 
	C346.705627,609.027771 350.719116,609.359131 354.721436,609.383972 
	C356.295715,609.393799 356.563049,607.732422 356.770966,606.370544 
	C357.446960,601.941711 358.166718,597.519531 358.835510,593.089661 
	C359.639435,587.765076 361.262787,586.515808 366.445282,586.947998 
	C376.547729,587.790588 386.664459,588.466919 396.761627,589.365356 
	C399.657928,589.623108 400.730011,588.524841 400.699860,585.769348 
	C400.566742,573.603821 402.099640,561.573547 403.836212,548.682251 
M390.670959,754.888184 
	C392.045746,758.477478 388.682190,760.958557 388.433167,763.991211 
	C387.289001,777.925842 385.832611,791.807922 383.399994,805.581909 
	C382.867065,808.599609 384.225769,809.772156 387.285034,809.729065 
	C392.143188,809.660583 396.863708,808.430298 401.650146,808.157715 
	C409.253235,807.724915 414.070282,804.101074 417.586639,797.476379 
	C421.593323,789.927979 427.829468,783.521729 427.549652,774.029175 
	C427.420715,769.656799 426.461121,765.558472 425.726471,761.330505 
	C424.569305,754.670715 423.017273,752.760742 416.318573,752.378662 
	C410.170258,752.027954 404.019104,751.721375 397.866821,751.448792 
	C395.163391,751.328979 392.451691,751.335693 390.670959,754.888184 
M735.246826,617.371521 
	C736.594543,631.783508 743.517090,637.747192 757.893066,636.984131 
	C761.905457,636.771118 765.805542,636.106201 769.611145,634.830505 
	C777.992188,632.020874 783.326599,626.360474 785.598755,617.813232 
	C787.557678,610.444275 787.200317,602.948547 786.372925,595.525818 
	C785.693848,589.432617 784.950012,589.096436 779.025635,590.507996 
	C767.236450,593.316772 755.468445,596.216614 743.708984,599.148071 
	C734.968872,601.326904 733.556396,603.454529 734.556885,612.563660 
	C734.701904,613.884216 734.958374,615.192505 735.246826,617.371521 
M576.921570,799.640381 
	C579.136230,805.202576 583.316895,807.660645 589.219971,807.958557 
	C593.023193,808.150574 596.799255,808.954773 600.577332,809.549316 
	C604.689514,810.196411 606.536621,808.263123 606.562927,804.331116 
	C606.644165,792.178894 606.792908,780.034668 608.615540,767.979126 
	C609.024292,765.275330 607.810669,763.971375 604.985901,763.959595 
	C602.108398,763.947632 599.121399,764.579285 596.237854,763.346802 
	C596.886047,761.013794 600.082947,759.914490 598.398682,757.382690 
	C596.956299,755.214355 594.462891,755.981567 592.395264,755.963013 
	C588.067688,755.924194 583.737854,756.117676 579.409241,756.226440 
	C571.640564,756.421570 571.493225,756.675171 575.051147,763.423096 
	C575.164612,763.638245 574.921082,764.041565 574.833801,764.398682 
	C573.095093,765.637329 570.967651,765.053101 569.062134,765.549255 
	C567.248230,766.021484 565.429749,766.428589 565.302063,768.834900 
	C564.968384,775.123230 564.087646,781.387390 568.528931,786.965332 
	C571.523132,790.725769 573.870667,795.000977 576.921570,799.640381 
M287.486206,621.865967 
	C291.707642,634.078491 300.338440,639.706421 314.789368,639.669739 
	C323.387512,639.647888 328.186981,636.323547 331.014008,628.392090 
	C333.011475,622.788025 332.847992,616.972717 332.639160,611.156067 
	C332.549561,608.660339 330.845184,607.826294 328.770477,607.315308 
	C316.372925,604.261719 303.957733,601.275635 291.597809,598.076233 
	C288.400879,597.248718 287.586151,598.398499 287.087250,601.306396 
	C285.949890,607.936157 285.883331,614.491028 287.486206,621.865967 
M779.016235,567.586304 
	C773.955872,568.494873 768.887207,569.359863 763.836792,570.320862 
	C752.592834,572.460388 741.339844,574.583130 730.505310,578.401367 
	C728.323669,579.170227 725.823608,579.909363 726.447754,583.092712 
	C727.032227,586.073303 728.474121,588.472229 731.846680,588.717529 
	C733.814758,588.860718 735.883484,588.879333 737.788086,588.439453 
	C754.936829,584.479126 772.287048,581.734680 789.742249,579.592651 
	C794.364197,579.025452 795.842224,575.874146 795.668762,571.837524 
	C795.487122,567.612061 792.367310,566.283081 788.750793,566.344727 
	C785.786865,566.395264 782.833191,567.051086 779.016235,567.586304 
M523.564880,413.120728 
	C520.164429,411.466522 518.542114,407.910217 515.533325,405.750092 
	C508.228271,400.505524 500.513672,403.138885 492.881195,404.166290 
	C490.808167,404.445343 488.261536,404.680756 487.530212,407.147583 
	C486.693054,409.971252 488.686523,411.782074 490.594269,413.475586 
	C494.484161,416.928772 499.084320,419.250092 503.534393,421.857086 
	C515.238586,428.713745 538.508484,426.033295 548.365540,416.452026 
	C545.183472,413.964630 541.852112,413.798950 538.054321,415.122772 
	C533.287903,416.784119 528.551819,416.229279 523.564880,413.120728 
M411.390289,821.061462 
	C404.412903,816.184204 397.206787,815.921387 390.997040,820.317566 
	C385.799469,823.997314 383.151062,831.447327 384.851807,837.604614 
	C386.715210,844.350769 392.023956,849.075195 398.537506,849.783813 
	C405.674347,850.560303 412.023987,847.321289 415.264374,841.251526 
	C418.676239,834.860596 417.489807,827.837036 411.390289,821.061462 
M581.708740,846.906250 
	C587.900391,851.095093 594.315002,851.103638 600.389893,847.068359 
	C605.936584,843.383911 608.552795,837.782898 607.488403,831.131226 
	C606.398743,824.321533 602.234558,819.786560 595.533936,817.825012 
	C588.448181,815.750671 580.982910,818.827820 577.102722,825.321655 
	C573.091187,832.035339 574.601135,839.955200 581.708740,846.906250 
M336.875092,587.565918 
	C320.291382,581.882629 303.017914,579.329285 285.829346,576.434570 
	C282.247894,575.831482 278.842163,576.906738 278.464661,581.177917 
	C278.092590,585.387878 280.573944,587.183350 284.808258,587.759338 
	C296.486511,589.347656 308.100342,591.404114 319.753601,593.184204 
	C324.669373,593.935181 329.356049,595.950439 334.440063,595.760376 
	C336.827179,595.671082 338.648590,594.782593 339.482513,592.440918 
	C340.216217,590.380615 339.454834,588.882080 336.875092,587.565918 
M431.143097,431.531525 
	C433.286255,432.216370 435.424927,432.586395 436.793304,430.230408 
	C439.297913,425.918152 434.242188,424.607391 433.623108,421.542877 
	C428.489136,423.271545 427.880280,425.322968 431.143097,431.531525 
z"/>
<path fill="#000000" opacity="1.000000" stroke="none" 
	d="
M852.819580,359.067017 
	C850.458191,348.731689 847.488281,339.050964 842.815308,329.938904 
	C830.938354,306.779572 811.960754,298.550018 787.077576,306.132050 
	C767.703308,312.035461 751.361084,323.041412 736.827881,336.912994 
	C733.453064,340.134125 730.220581,343.504211 726.849792,346.729675 
	C725.579163,347.945557 724.485901,349.615723 721.970825,349.367432 
	C721.344788,347.022400 721.746277,344.012726 717.827942,343.439911 
	C715.469116,343.095093 716.584045,340.677795 717.574707,339.405304 
	C738.386169,312.673676 763.003601,291.227783 797.868530,286.119446 
	C819.853333,282.898285 838.226257,290.993988 851.918396,308.603760 
	C866.100281,326.843414 871.376648,348.421204 874.179932,370.801605 
	C874.405273,372.600220 874.188049,374.461029 874.091187,376.288391 
	C874.067810,376.731018 873.705383,377.155670 873.368774,377.861328 
	C870.687744,377.216431 869.985840,374.864807 868.901428,372.933258 
	C864.971802,365.934235 862.278320,365.500824 856.921570,371.363373 
	C853.657654,367.987091 854.246948,363.374969 852.819580,359.067017 
z"/>
<path fill="#000000" opacity="1.000000" stroke="none" 
	d="
M526.604980,283.303284 
	C516.635803,268.856934 521.259338,255.141541 537.669373,249.833847 
	C544.419067,247.650696 551.353638,246.939819 558.340454,248.637161 
	C569.336304,251.308395 580.444702,253.905334 589.496277,261.228912 
	C605.473633,274.156158 602.540710,294.036255 583.391296,301.343170 
	C567.749268,307.311707 552.950562,304.969696 539.764587,294.519104 
	C535.350586,291.020782 530.466187,288.026672 526.604980,283.303284 
M576.185852,285.811768 
	C583.226501,280.498413 583.847961,274.709808 578.080139,268.167633 
	C569.691345,258.652679 549.914795,254.299850 538.363098,259.425873 
	C529.316345,263.440338 527.807007,270.836273 534.552002,278.100800 
	C544.266418,288.563477 562.059998,292.072327 576.185852,285.811768 
z"/>
<path fill="#000000" opacity="1.000000" stroke="none" 
	d="
M450.023315,306.252747 
	C437.835632,306.249268 427.311737,302.036774 417.578339,296.154327 
	C406.105896,289.220856 403.964447,275.887848 411.859741,265.020782 
	C424.394745,247.767563 457.842987,241.596680 474.829865,254.336731 
	C491.248840,266.650848 494.993652,288.948914 471.172028,301.353058 
	C464.775238,304.683990 457.821075,306.456055 450.023315,306.252747 
M435.428650,259.925781 
	C429.645782,261.866547 424.514557,264.876129 420.437775,269.455566 
	C414.461670,276.168427 415.364929,283.536346 422.780426,288.565735 
	C424.414764,289.674164 426.224335,290.745361 428.108459,291.229187 
	C442.726440,294.983063 456.578094,293.580078 468.700012,283.921814 
	C479.661469,275.188202 477.713470,264.069244 464.538208,259.322510 
	C455.092163,255.919327 445.588379,256.578613 435.428650,259.925781 
z"/>
<path fill="#000000" opacity="1.000000" stroke="none" 
	d="
M517.491089,456.137177 
	C520.695984,454.810181 519.794556,457.381897 520.042786,458.599213 
	C521.798706,467.210663 520.677795,475.850922 519.731812,484.406891 
	C519.027771,490.775360 519.745300,495.861389 525.026550,500.437927 
	C530.990173,505.605774 534.355469,520.175049 527.302307,526.502686 
	C522.085144,531.183105 517.697388,531.779358 512.486755,527.107178 
	C507.586304,522.713074 505.462128,516.700623 503.213104,510.811737 
	C499.239288,500.406738 496.370605,489.726593 495.359833,477.929504 
	C501.666809,479.800964 505.132324,474.391388 510.219147,473.364044 
	C512.403320,472.922913 512.563782,470.361389 512.841431,468.380463 
	C513.448425,464.049561 514.542786,459.911316 517.491089,456.137177 
z"/>
<path fill="#000000" opacity="1.000000" stroke="none" 
	d="
M554.387024,883.804077 
	C586.679749,883.800049 618.518921,883.800049 650.981934,883.800049 
	C649.846985,887.356628 648.026428,887.085022 646.503723,887.086426 
	C615.675110,887.115723 584.846436,887.113281 554.017822,887.094238 
	C552.721985,887.093445 551.297852,887.190125 550.497864,885.667725 
	C550.818481,883.551208 552.570618,884.025635 554.387024,883.804077 
z"/>
<path fill="#000000" opacity="1.000000" stroke="none" 
	d="
M364.000061,883.796631 
	C390.116821,883.796692 415.733612,883.796692 441.350433,883.796692 
	C437.810150,887.954895 345.166962,887.961609 340.944580,884.756348 
	C348.809418,882.859131 356.218597,884.253174 364.000061,883.796631 
z"/>
<path fill="#000000" opacity="1.000000" stroke="none" 
	d="
M530.403137,471.572510 
	C525.007751,464.323547 531.240540,456.253754 538.031738,453.606598 
	C541.587280,452.220673 545.196533,455.028625 544.794678,459.081390 
	C544.298218,464.087616 542.490601,468.770935 538.492126,472.158844 
	C535.910828,474.346039 533.145752,474.735138 530.403137,471.572510 
z"/>
<path fill="#000000" opacity="1.000000" stroke="none" 
	d="
M870.495483,451.074646 
	C867.605896,440.582886 870.532471,431.372467 874.868835,422.351624 
	C876.492126,433.329132 874.885010,444.022247 873.360840,454.961517 
	C870.784729,454.188141 871.091309,452.583740 870.495483,451.074646 
z"/>
<path fill="#000000" opacity="1.000000" stroke="none" 
	d="
M405.991028,835.486938 
	C405.865662,837.736023 407.525635,839.486877 406.397888,842.035828 
	C402.762665,839.311951 399.017731,838.651917 394.173096,843.234131 
	C395.311157,837.582153 396.792999,833.021545 390.530396,830.757751 
	C396.031250,830.437195 399.346466,828.452087 400.680023,823.354309 
	C402.525299,827.858948 404.964111,830.835022 409.931763,829.916016 
	C409.924530,833.036438 406.765472,833.134155 405.991028,835.486938 
z"/>
<path fill="#000000" opacity="1.000000" stroke="none" 
	d="
M596.674194,837.480713 
	C597.175049,839.053406 597.797791,840.286621 596.717468,842.174866 
	C593.186218,838.836853 589.363403,838.349548 585.263184,842.252502 
	C586.133240,837.372925 586.881653,833.073120 580.950256,830.535034 
	C586.552307,830.665710 589.597900,828.261658 591.139404,821.906799 
	C593.121277,827.918945 595.759766,830.658264 600.590088,829.957642 
	C600.521912,833.462708 595.455139,833.508728 596.674194,837.480713 
z"/>
<path fill="#000000" opacity="1.000000" stroke="none" 
	d="
M573.302063,276.962830 
	C571.164490,283.832764 566.726501,286.994446 560.812988,286.237823 
	C555.757874,285.591064 551.868713,281.372681 551.498779,276.135040 
	C551.076416,270.156128 554.084595,265.862457 559.862671,264.259705 
	C561.808838,263.719910 563.763306,263.366272 565.366455,265.088470 
	C563.254944,273.009949 564.615723,274.503723 572.462891,272.923218 
	C573.735657,273.895477 573.228760,275.305634 573.302063,276.962830 
z"/>
<path fill="#000000" opacity="1.000000" stroke="none" 
	d="
M423.023560,269.268677 
	C426.626465,264.702698 430.852203,262.894806 436.617828,264.194916 
	C435.937103,267.411865 432.019165,270.594788 436.513763,273.095703 
	C439.900574,274.980255 441.949585,272.305695 443.617432,269.677124 
	C447.976196,275.006989 446.985168,282.527100 441.733429,286.578857 
	C435.877380,291.096863 427.364746,289.805450 423.264587,283.691559 
	C420.201233,279.123657 420.040161,274.387848 423.023560,269.268677 
z"/>
</svg>